<svg xmlns="http://www.w3.org/2000/svg" xmlns:xlink="http://www.w3.org/1999/xlink" zoomAndPan="magnify" preserveAspectRatio="xMidYMid meet" version="1.0" viewBox="153.41 131.79 68.18 61.86"><path fill="#ffffff" d="M 210.34375 149.136719 C 209.09375 139.203125 200.734375 131.789062 190.652344 131.789062 C 182.804688 131.789062 175.773438 136.355469 172.5625 143.476562 C 171.601562 143.300781 170.621094 143.214844 169.644531 143.214844 C 160.691406 143.214844 153.410156 150.507812 153.410156 159.46875 C 153.410156 161.820312 153.898438 164.085938 154.867188 166.210938 C 156.441406 169.664062 159.644531 171.722656 163.433594 171.722656 L 186.710938 171.722656 L 186.710938 187.238281 C 185.554688 187.53125 184.644531 188.441406 184.355469 189.601562 L 170.277344 189.601562 L 170.277344 191.179688 L 184.355469 191.179688 C 184.710938 192.59375 185.980469 193.648438 187.5 193.648438 C 189.019531 193.648438 190.289062 192.59375 190.644531 191.179688 L 204.722656 191.179688 L 204.722656 189.601562 L 190.644531 189.601562 C 190.355469 188.441406 189.449219 187.53125 188.289062 187.238281 L 188.289062 171.722656 L 212.175781 171.722656 C 214.785156 171.722656 217.039062 170.78125 218.875 168.921875 C 220.710938 167.0625 221.621094 164.792969 221.589844 162.179688 C 221.511719 155.648438 216.71875 150.152344 210.34375 149.136719 Z M 189.175781 190.390625 C 189.175781 191.316406 188.425781 192.066406 187.5 192.066406 C 186.578125 192.066406 185.824219 191.316406 185.824219 190.390625 C 185.824219 189.464844 186.578125 188.710938 187.5 188.710938 C 188.425781 188.710938 189.175781 189.464844 189.175781 190.390625 Z M 217.753906 167.8125 C 216.226562 169.359375 214.347656 170.144531 212.175781 170.144531 L 163.433594 170.144531 C 160.277344 170.144531 157.613281 168.429688 156.300781 165.554688 C 155.429688 163.640625 154.988281 161.59375 154.988281 159.46875 C 154.988281 151.378906 161.5625 144.792969 169.644531 144.792969 C 170.726562 144.792969 171.808594 144.914062 172.859375 145.148438 C 173.238281 145.234375 173.613281 145.035156 173.761719 144.679688 C 176.597656 137.808594 183.230469 133.371094 190.652344 133.371094 C 200.128906 133.371094 207.949219 140.480469 208.84375 149.914062 C 208.878906 150.285156 209.171875 150.582031 209.542969 150.625 C 215.4375 151.277344 219.941406 156.253906 220.011719 162.199219 C 220.039062 164.375 219.277344 166.261719 217.753906 167.8125 Z M 217.753906 167.8125 " fill-opacity="1" fill-rule="nonzero"/></svg>